<svg width="51" height="37" viewBox="0 0 51 37" fill="none" xmlns="http://www.w3.org/2000/svg">
<path d="M48.52 13.2384C48.52 7.13362 38.2136 2.18469 25.4999 2.18469C12.7863 2.18469 2.47986 7.13362 2.47986 13.2384M48.52 13.2384L48.3329 21.9908C48.2742 24.7393 48.2448 26.1136 47.3136 27.6097C46.3824 29.1058 45.4418 29.5939 43.5608 30.5701C43.2527 30.73 42.9297 30.8914 42.5919 31.0532M48.52 13.2384C48.52 16.0867 46.2766 18.6833 42.5919 20.6431M2.47986 13.2384L2.9683 22.4734C3.10099 24.9821 3.16733 26.2365 4.05157 27.6472C4.93581 29.0578 5.76182 29.5132 7.41385 30.4239C7.86008 30.6699 8.34181 30.9206 8.85892 31.1713M2.47986 13.2384C2.47986 16.2011 4.90716 18.8915 8.85892 20.8762M8.85892 20.8762V31.1713M8.85892 20.8762C10.4935 21.6971 12.3888 22.3972 14.4811 22.946C14.7608 23.0193 15.044 23.09 15.3305 23.1579M8.85892 31.1713C10.4141 31.9253 12.2892 32.6789 14.4811 33.3007C14.7591 33.3795 15.0423 33.4563 15.3305 33.5307M21.7096 24.1431C22.9427 24.2411 24.2089 24.2922 25.4999 24.2922C26.6684 24.2922 27.8165 24.2504 28.9381 24.1697C29.2074 24.1504 29.4751 24.1288 29.7413 24.105M21.7096 24.1431C21.5588 24.1311 21.4084 24.1184 21.2586 24.105C19.7453 23.9696 18.2841 23.7632 16.8906 23.4932C16.3605 23.3905 15.8402 23.2786 15.3305 23.1579M21.7096 24.1431V34.6149M21.7096 34.6149C22.908 34.7198 24.1638 34.7775 25.4768 34.7775C26.6751 34.7775 27.8291 34.7295 28.9381 34.6413C29.2085 34.6198 29.4762 34.5959 29.7413 34.5697M21.7096 34.6149C21.5475 34.6007 21.3865 34.5856 21.2266 34.5697C19.7225 34.4202 18.3113 34.1964 16.9935 33.9195C16.4216 33.7993 15.8672 33.6691 15.3305 33.5307M29.7413 24.105C32.0187 23.9013 34.1782 23.5366 36.1666 23.0365M29.7413 24.105V34.5697M29.7413 34.5697C32.0982 34.3371 34.2425 33.9244 36.1666 33.4116M36.1666 23.0365V33.4116M36.1666 23.0365C38.596 22.4254 40.7701 21.6121 42.5919 20.6431M36.1666 33.4116C38.6939 32.7381 40.8413 31.8917 42.5919 31.0532M42.5919 20.6431V31.0532M15.3305 23.1579V33.5307" stroke="#7B6BFD" stroke-width="3.21267"/>
<path d="M40.2626 12.8883C40.2626 15.8583 33.6532 18.266 25.5001 18.266C17.347 18.266 10.7376 15.8583 10.7376 12.8883C10.7376 9.91834 17.347 7.51068 25.5001 7.51068C33.6532 7.51068 40.2626 9.91834 40.2626 12.8883Z" stroke="#7B6BFD" stroke-width="3.21267"/>
</svg>
