<svg width="43" height="54" viewBox="0 0 43 54" fill="none" xmlns="http://www.w3.org/2000/svg">
<path d="M21.5002 2.49609C11.1022 2.49609 2.67297 7.45062 2.67297 20.9612V47.589C2.67297 49.5376 5.0592 50.4791 6.38973 49.0556C7.29664 48.0852 8.85804 48.1624 9.66483 49.2174L10.4221 50.2077C11.5288 51.655 13.6927 51.7009 14.8598 50.3018C15.9954 48.9405 18.0868 48.9405 19.2224 50.3018L19.3295 50.4303L19.3391 50.4417C20.487 51.8117 22.5757 51.8663 23.7935 50.558L23.8036 50.5471L24.3028 50.0086C25.4211 48.8022 27.3603 48.9084 28.3402 50.2297C29.3809 51.6333 31.4763 51.6487 32.5377 50.2608L33.3355 49.2174C34.1423 48.1624 35.7037 48.0852 36.6106 49.0556C37.9411 50.4791 40.3273 49.5376 40.3273 47.589V20.9612C40.3273 7.45062 31.8981 2.49609 21.5002 2.49609Z" fill="url(#paint0_linear_9247_1535)" fill-opacity="0.52" stroke="url(#paint1_linear_9247_1535)" stroke-width="3.46817"/>
<ellipse cx="14.564" cy="18.3505" rx="1.98181" ry="3.96362" fill="white" fill-opacity="0.72"/>
<path d="M14.564 24.0482C16.1219 24.0482 17.0655 22.8303 17.5163 21.9287C18.019 20.9233 18.2799 19.6558 18.2799 18.3505C18.2799 17.0451 18.019 15.7776 17.5163 14.7723C17.0655 13.8706 16.1219 12.6528 14.564 12.6528C13.006 12.6528 12.0624 13.8706 11.6116 14.7723C11.1089 15.7776 10.8481 17.0451 10.8481 18.3505C10.8481 19.6558 11.1089 20.9233 11.6116 21.9287C12.0624 22.8303 13.006 24.0482 14.564 24.0482Z" stroke="#4DC9F0" stroke-opacity="0.55" stroke-width="3.46817"/>
<ellipse cx="28.4366" cy="18.3505" rx="1.98181" ry="3.96362" fill="white" fill-opacity="0.72"/>
<path d="M28.4366 24.0482C29.9946 24.0482 30.9382 22.8303 31.389 21.9287C31.8917 20.9233 32.1525 19.6558 32.1525 18.3505C32.1525 17.0451 31.8917 15.7776 31.389 14.7723C30.9382 13.8706 29.9946 12.6528 28.4366 12.6528C26.8787 12.6528 25.9351 13.8706 25.4843 14.7723C24.9816 15.7776 24.7208 17.0451 24.7208 18.3505C24.7208 19.6558 24.9816 20.9233 25.4843 21.9287C25.9351 22.8303 26.8787 24.0482 28.4366 24.0482Z" stroke="#4DC9F0" stroke-opacity="0.55" stroke-width="3.46817"/>
<defs>
<linearGradient id="paint0_linear_9247_1535" x1="21.5002" y1="2.49609" x2="21.5002" y2="53.0322" gradientUnits="userSpaceOnUse">
<stop stop-color="#4DC9F0" stop-opacity="0.09"/>
<stop offset="1" stop-color="white"/>
</linearGradient>
<linearGradient id="paint1_linear_9247_1535" x1="21.5002" y1="2.49609" x2="21.5002" y2="53.0322" gradientUnits="userSpaceOnUse">
<stop stop-color="#AEE6F8"/>
<stop offset="1" stop-color="#4DC9F0"/>
</linearGradient>
</defs>
</svg>
