<?xml version="1.0" encoding="UTF-8"?>
<!DOCTYPE svg PUBLIC "-//W3C//DTD SVG 1.0//EN" "http://www.w3.org/TR/2001/REC-SVG-20010904/DTD/svg10.dtd">
<!-- Creator: CorelDRAW X7 -->
<svg xmlns="http://www.w3.org/2000/svg" xml:space="preserve" width="346px" height="40px" version="1.0" style="shape-rendering:geometricPrecision; text-rendering:geometricPrecision; image-rendering:optimizeQuality; fill-rule:evenodd; clip-rule:evenodd"
viewBox="0 0 1156148 133477"
 xmlns:xlink="http://www.w3.org/1999/xlink">
 <defs>
  <style type="text/css">
   <![CDATA[
    .fil0 {fill:black;fill-rule:nonzero}
    .fil2 {fill:#6D5EEB;fill-rule:nonzero}
    .fil1 {fill:#A58CFF;fill-rule:nonzero}
   ]]>
  </style>
 </defs>
 <g id="Layer_x0020_1">
  <metadata id="CorelCorpID_0Corel-Layer"/>
  <path class="fil0" d="M1104410 34206l16250 47967 15858 -47967 19630 0 -29638 76306c-1560,4074 -3034,7259 -4421,9555 -1386,2297 -3140,4030 -5265,5199 -2123,1171 -4874,1755 -8254,1755l-17810 0 0 -15469 10140 0c2340,0 4029,-389 5070,-1169 1040,-781 2036,-2297 2990,-4551l1689 -4418 -25738 -67208 19499 0z"/>
  <path class="fil0" d="M1087645 85553l0 15470 -9360 0c-8405,0 -12521,-3640 -12349,-10920 -2427,3813 -5416,6717 -8969,8710 -3553,1993 -7843,2991 -12870,2991 -7453,0 -13454,-1713 -18004,-5135 -4550,-3424 -6824,-8255 -6824,-14496 0,-7106 2621,-12587 7863,-16443 5244,-3857 12848,-5786 22814,-5786l13260 0 0 -3249c0,-3033 -1127,-5438 -3380,-7215 -2253,-1776 -5287,-2665 -9099,-2665 -3379,0 -6154,736 -8319,2210 -2167,1474 -3467,3467 -3900,5981l-17679 0c605,-6847 3639,-12156 9098,-15926 5461,-3769 12696,-5655 21710,-5655 9446,0 16747,2081 21904,6240 5156,4160 7735,10184 7735,18070l0 23529c0,1646 346,2772 1040,3380 693,606 1777,909 3249,909l2080 0zm-24439 -13389l-13389 0c-3814,0 -6781,759 -8905,2276 -2122,1516 -3184,3661 -3184,6434 0,2340 887,4203 2664,5590 1777,1386 4181,2080 7215,2080 4767,0 8537,-1365 11310,-4096 2772,-2729 4203,-6390 4289,-10983l0 -1301z"/>
  <path class="fil0" d="M1010067 10027l0 90996 -15990 0 -1820 -9229c-5113,6673 -12046,10010 -20800,10010 -5893,0 -11179,-1408 -15858,-4226 -4681,-2816 -8342,-6824 -10986,-12025 -2643,-5199 -3963,-11222 -3963,-18069 0,-6758 1320,-12718 3963,-17874 2644,-5157 6328,-9143 11050,-11959 4723,-2818 10032,-4226 15924,-4226 8667,0 15383,3034 20150,9100l0 -32498 18330 0zm-34320 76827c4940,0 8884,-1755 11830,-5266 2947,-3509 4419,-8123 4419,-13843 0,-5807 -1472,-10487 -4419,-14041 -2946,-3552 -6890,-5329 -11830,-5329 -4939,0 -8905,1777 -11893,5329 -2990,3554 -4486,8190 -4486,13910 0,5720 1496,10356 4486,13910 2988,3553 6954,5330 11893,5330z"/>
  <path class="fil0" d="M899165 101804c-7019,0 -13193,-1408 -18524,-4226 -5330,-2816 -9446,-6824 -12350,-12025 -2903,-5199 -4353,-11179 -4353,-17939 0,-6759 1450,-12739 4353,-17938 2904,-5201 7020,-9209 12350,-12025 5331,-2818 11505,-4226 18524,-4226 7020,0 13194,1408 18525,4226 5330,2816 9446,6824 12350,12025 2903,5199 4353,11179 4353,17938 0,6847 -1450,12848 -4353,18005 -2904,5156 -7020,9143 -12350,11959 -5331,2818 -11505,4226 -18525,4226zm0 -14950c5114,0 9166,-1777 12155,-5330 2989,-3554 4485,-8190 4485,-13910 0,-5720 -1496,-10356 -4485,-13910 -2989,-3552 -7041,-5329 -12155,-5329 -5026,0 -9035,1777 -12024,5329 -2989,3554 -4485,8190 -4485,13910 0,5720 1496,10356 4485,13910 2989,3553 6998,5330 12024,5330z"/>
  <polygon class="fil0" points="801671,10027 873689,10027 873689,26796 847431,26796 847431,101023 827931,101023 827931,26796 801671,26796 "/>
  <polygon class="fil0" points="698295,34206 717665,34206 731053,81264 743663,34206 760172,34206 772391,81394 786042,34206 804761,34206 782791,101023 763293,101023 751592,60726 739634,101023 720134,101023 "/>
  <path class="fil0" d="M631984 67745c0,-6934 1409,-12979 4225,-18135 2816,-5157 6761,-9143 11830,-11959 5069,-2818 10941,-4226 17614,-4226 6760,0 12718,1323 17874,3966 5157,2643 9186,6369 12090,11179 2902,4810 4398,10465 4484,16964 0,2340 -173,4421 -519,6240l-48488 0 0 520c433,4853 1994,8666 4680,11439 2685,2774 6369,4160 11048,4160 3728,0 6826,-801 9296,-2404 2470,-1604 4094,-3965 4875,-7085l18068 0c-692,4420 -2383,8405 -5069,11960 -2687,3552 -6240,6347 -10661,8384 -4418,2036 -9488,3056 -15207,3056 -7455,0 -13889,-1387 -19306,-4160 -5415,-2775 -9575,-6738 -12479,-11895 -2903,-5156 -4355,-11158 -4355,-18004zm49788 -7931c-606,-4073 -2274,-7213 -5005,-9424 -2729,-2210 -6175,-3315 -10335,-3315 -3985,0 -7343,1148 -10073,3445 -2731,2296 -4355,5395 -4876,9294l30289 0z"/>
  <polygon class="fil0" points="607537,34206 625865,34206 625865,101023 607537,101023 "/>
  <path class="fil0" d="M616766 6388c3033,0 5546,974 7540,2924 1992,1950 2989,4398 2989,7344 0,2948 -997,5417 -2989,7410 -1994,1994 -4507,2991 -7540,2991 -3033,0 -5568,-997 -7605,-2991 -2036,-1993 -3055,-4462 -3055,-7410 0,-2946 1019,-5394 3055,-7344 2037,-1950 4572,-2924 7605,-2924z"/>
  <polygon class="fil0" points="532502,34206 552132,34206 568251,82304 584109,34206 603348,34206 579300,101023 556550,101023 "/>
  <path class="fil0" d="M528835 34206l0 16639 -7279 0c-5201,0 -9014,1560 -11440,4680 -2427,3120 -3639,7366 -3639,12740l0 32758 -18330 0 0 -66817 16639 0 1691 10010c1992,-3294 4462,-5785 7409,-7476 2947,-1689 6889,-2534 11829,-2534l3120 0z"/>
  <path class="fil0" d="M412048 67745c0,-6934 1408,-12979 4225,-18135 2816,-5157 6759,-9143 11830,-11959 5069,-2818 10940,-4226 17613,-4226 6760,0 12718,1323 17875,3966 5157,2643 9185,6369 12089,11179 2903,4810 4399,10465 4484,16964 0,2340 -173,4421 -518,6240l-48489 0 0 520c433,4853 1993,8666 4679,11439 2686,2774 6371,4160 11050,4160 3727,0 6824,-801 9295,-2404 2469,-1604 4095,-3965 4875,-7085l18069 0c-694,4420 -2383,8405 -5070,11960 -2687,3552 -6239,6347 -10660,8384 -4419,2036 -9490,3056 -15209,3056 -7453,0 -13888,-1387 -19304,-4160 -5417,-2775 -9576,-6738 -12480,-11895 -2904,-5156 -4354,-11158 -4354,-18004zm49787 -7931c-605,-4073 -2274,-7213 -5005,-9424 -2729,-2210 -6174,-3315 -10334,-3315 -3986,0 -7345,1148 -10075,3445 -2729,2296 -4355,5395 -4875,9294l30289 0z"/>
  <path class="fil0" d="M374062 49676l-11049 0 0 -15470 11049 0 0 -18720 18330 0 0 18720 15208 0 0 15470 -15208 0 0 29248c0,2340 499,4031 1494,5069 997,1041 2666,1560 5006,1560l8708 0 0 15470 -14428 0c-12739,0 -19110,-6370 -19110,-19109l0 -32238z"/>
  <path class="fil0" d="M331403 33425c7800,0 14213,2428 19239,7280 5026,4854 7540,12871 7540,24050l0 36268 -18330 0 0 -35228c0,-11526 -4507,-17291 -13519,-17291 -4767,0 -8450,1605 -11049,4811 -2601,3208 -3900,7713 -3900,13519l0 34189 -18329 0 0 -66817 15989 0 1689 8319c2340,-2860 5157,-5091 8451,-6694 3292,-1603 7365,-2406 12219,-2406z"/>
  <polygon class="fil0" points="263327,10027 282826,10027 282826,101023 263327,101023 "/>
  <path class="fil1" d="M133781 15451c-12071,0 -12158,-15451 0,-15451 13241,0 23944,0 37186,0 16040,0 27037,7621 32033,24642l11390 38579c4312,14636 -2235,26459 -19090,26459l-24750 0 -10589 0 -21480 0c-17260,0 -27702,-10287 -31180,-22113l-751 -2372c-3151,-11760 11936,-15001 14846,-4142l691 2168c1650,5625 7480,11010 16394,11010l21480 0 10589 0 23085 0c5773,0 7440,-1789 5630,-7940l-11190 -38002c-2081,-7765 -7110,-12838 -16582,-12838 -13242,0 -24471,0 -37712,0z"/>
  <path class="fil2" d="M65561 84387c11337,0 11539,15386 0,15386l-14782 0c-11741,0 -11850,-15386 0,-15386l14782 0z"/>
  <path class="fil2" d="M64227 43501c-11995,0 -11733,-15387 0,-15387l83255 0c17327,0 28205,8680 32975,24932l11309 38266c4945,16919 -2524,26418 -19061,26418l-27426 -273c-6691,-67 -9739,834 -15848,5181l-7709 5484c-12239,8705 -23812,7244 -29533,-7705 -906,-2373 -1624,-4936 -2405,-7588l-9242 -31488c-2932,-9991 -3675,-9704 -13979,-9704l-24750 0c-12195,0 -11915,-15387 0,-15387l33335 0c8992,0 15217,4703 17530,12583l12092 40566c2615,8905 2936,9867 10691,4350l4201 -2986c9912,-7051 13838,-8417 25190,-8417l27081 0c4824,0 6357,-2441 4891,-7450l-11324 -38396c-2217,-8272 -8651,-12999 -18436,-12999l-82837 0z"/>
  <path class="fil1" d="M109689 63c12051,0 11830,15387 0,15387l-7762 0c-11993,0 -12588,-15387 0,-15387l7762 0z"/>
  <path class="fil2" d="M16982 56250c12051,0 11830,15387 0,15387l-7762 0c-11993,0 -12588,-15387 0,-15387l7762 0z"/>
 </g>
</svg>
