<svg width="49" height="50" viewBox="0 0 49 50" fill="none" xmlns="http://www.w3.org/2000/svg">
<path d="M3.78772 13.1632L22.7805 20.9838C23.6292 21.3332 24.0535 21.508 24.5003 21.508C24.9471 21.508 25.3714 21.3332 26.2201 20.9838L45.2129 13.1632" stroke="#FCB2D4" stroke-width="3.95229" stroke-linecap="round"/>
<path d="M24.5002 21.6923V46.0601" stroke="#FCB2D4" stroke-width="3.95229" stroke-linecap="round"/>
<path d="M33.82 25.9084C33.82 26.9998 34.7047 27.8846 35.7961 27.8846C36.8875 27.8845 37.7723 26.9998 37.7722 25.9084L33.82 25.9084ZM35.796 16.8734L37.7721 16.8734L37.7721 15.5889L36.5982 15.0674L35.796 16.8734ZM16.2686 6.03715L14.4626 5.23494L12.8582 8.84693L14.6642 9.64914L16.2686 6.03715ZM37.7722 25.9084L37.7721 16.8734L33.8198 16.8734L33.82 25.9084L37.7722 25.9084ZM36.5982 15.0674L16.2686 6.03715L14.6642 9.64914L34.9938 18.6794L36.5982 15.0674Z" fill="#FCB2D4"/>
<path d="M19.7041 4.44702L5.1677 11.2666C3.90509 11.8589 3.27379 12.1551 2.9215 12.7095C2.56921 13.2639 2.56921 13.9612 2.56921 15.3559V35.337C2.56921 36.7316 2.56921 37.4289 2.9215 37.9833C3.27379 38.5377 3.90509 38.8339 5.1677 39.4262L19.7042 46.2458C22.0625 47.3522 23.2416 47.9053 24.5002 47.9053C25.7588 47.9053 26.938 47.3522 29.2963 46.2458L43.8327 39.4262C45.0953 38.8339 45.7266 38.5377 46.0789 37.9833C46.4312 37.4289 46.4312 36.7316 46.4312 35.337V15.3559C46.4312 13.9612 46.4312 13.2639 46.0789 12.7095C45.7266 12.1551 45.0953 11.8589 43.8327 11.2666L29.2963 4.44702C26.938 3.34066 25.7588 2.78747 24.5002 2.78747C23.2416 2.78747 22.0625 3.34066 19.7041 4.44702Z" fill="url(#paint0_linear_9247_1523)" stroke="url(#paint1_linear_9247_1523)" stroke-width="3.95229" stroke-linecap="round"/>
<path d="M7.56177 34.9451L10.9494 36.4849" stroke="#FCB2D4" stroke-width="3.95229" stroke-linecap="round"/>
<path d="M7.56177 29.2988L16.031 33.2511" stroke="#FCB2D4" stroke-width="3.95229" stroke-linecap="round"/>
<defs>
<linearGradient id="paint0_linear_9247_1523" x1="24.5002" y1="2.19702" x2="24.5002" y2="37.7685" gradientUnits="userSpaceOnUse">
<stop stop-color="#FDDBEB" stop-opacity="0"/>
<stop offset="1" stop-color="white"/>
</linearGradient>
<linearGradient id="paint1_linear_9247_1523" x1="24.5002" y1="2.19702" x2="24.5002" y2="48.4958" gradientUnits="userSpaceOnUse">
<stop stop-color="#FCB2D4"/>
<stop offset="1" stop-color="#F956A1" stop-opacity="0.77"/>
</linearGradient>
</defs>
</svg>
